<svg height="512pt" viewBox="0 0 512 512" width="512pt" xmlns="http://www.w3.org/2000/svg"><path d="m512 0v330l-30 30h-452l-30-30v-330zm0 0" fill="#fdbf00"/><path d="m512 0v330l-30 30h-226v-360zm0 0" fill="#ff9100"/><path d="m181 407h150v90h-150zm0 0" fill="#dadae5"/><path d="m256 407h75v90h-75zm0 0" fill="#c9c9d3"/><path d="m0 330h512v92h-512zm0 0" fill="#efeff4"/><path d="m256 330h256v92h-256zm0 0" fill="#dadae5"/><path d="m121 482h270v30h-270zm0 0" fill="#efeff4"/><path d="m256 482h135v30h-135zm0 0" fill="#dadae5"/><path d="m241 60v90h211v-90zm0 0" fill="#efeff4"/><path d="m241 180v90h211v-90zm0 0" fill="#efeff4"/><path d="m136 60c-24.902344 0-45 20.097656-45 45 0 24.898438 20.097656 45 45 45s45-20.101562 45-45c0-24.902344-20.097656-45-45-45zm0 0" fill="#676e74"/><path d="m136 150c-41.398438 0-76 33.601562-76 75v45h151v-45c0-41.398438-33.601562-75-75-75zm0 0" fill="#676e74"/><g fill="#dadae5"><path d="m256 60h196v90h-196zm0 0"/><path d="m256 180h196v90h-196zm0 0"/></g></svg>